<svg t="1740123924738" class="icon" viewBox="0 0 1024 1024" version="1.1" xmlns="http://www.w3.org/2000/svg" p-id="9219" width="1em" height="1em"><path d="M881.778 540.444a28.444 28.444 0 1 1-56.89 0V398.222h-199.11a28.444 28.444 0 0 1-28.445-28.444V170.667H199.111v682.666H568.89a28.444 28.444 0 1 1 0 56.89H199.11a56.889 56.889 0 0 1-56.889-56.89V170.667a56.889 56.889 0 0 1 56.89-56.89h455.11l227.556 227.556v199.111z m-85.334 85.334a28.444 28.444 0 0 1 28.445 28.444v85.334h85.333a28.444 28.444 0 1 1 0 56.888H824.89v85.334a28.444 28.444 0 1 1-56.889 0v-85.334h-85.333a28.444 28.444 0 1 1 0-56.888H768v-85.334a28.444 28.444 0 0 1 28.444-28.444zM654.222 194.276v147.057H801.28L654.222 194.276z" p-id="9220"></path></svg>