<svg t="1716875537827" class="icon" viewBox="0 0 1024 1024" version="1.1" xmlns="http://www.w3.org/2000/svg" p-id="4588"
     width="1em" height="1em">
    <path d="M938.582921 630.166885v-49.048813a442.160622 442.160622 0 0 0-254.621043-406.816624 179.605212 179.605212 0 0 0-360.653036 12.262203 445.045846 445.045846 0 0 0-232.981861 394.554421v35.343998A179.605212 179.605212 0 0 0 182.654159 951.869393a180.326518 180.326518 0 0 0 78.622361-18.753958A415.472297 415.472297 0 0 0 518.782788 1024a418.357521 418.357521 0 0 0 248.129288-84.39281 175.277375 175.277375 0 0 0 64.19624 12.262203A180.326518 180.326518 0 0 0 1010.713528 771.542875a178.1626 178.1626 0 0 0-72.130607-141.37599zM505.799278 86.302107a108.195911 108.195911 0 1 1-108.19591 108.195911A108.195911 108.195911 0 0 1 505.799278 86.302107z m-432.783642 685.240768A108.195911 108.195911 0 1 1 182.654159 879.738786 108.195911 108.195911 0 0 1 73.015636 771.542875z m245.96537 115.408971A179.605212 179.605212 0 0 0 182.654159 591.216357h-19.475264v-12.262203a375.800463 375.800463 0 0 1 175.277375-316.653365 179.605212 179.605212 0 0 0 338.292547-12.262203 372.193933 372.193933 0 0 1 197.637864 331.079486v15.868734a163.736478 163.736478 0 0 0-43.278365-5.770449 180.326518 180.326518 0 0 0-128.39248 306.555081 355.603893 355.603893 0 0 1-382.292218-10.819592z m510.684698-7.21306A108.195911 108.195911 0 1 1 938.582921 771.542875a108.195911 108.195911 0 0 1-107.474605 108.195911z"
          fill="currentColor" p-id="4589"></path>
</svg>