<?xml version="1.0" standalone="no"?><!DOCTYPE svg PUBLIC "-//W3C//DTD SVG 1.1//EN" "http://www.w3.org/Graphics/SVG/1.1/DTD/svg11.dtd">
<svg t="1693293392417" class="icon" viewBox="0 0 1024 1024" version="1.1"
    xmlns="http://www.w3.org/2000/svg" p-id="6628"
    xmlns:xlink="http://www.w3.org/1999/xlink" width="1em" height="1em">
    <path d="M575.296 490.848q4.576 36-28.864 57.728t-63.712 3.424q-22.272-9.728-30.56-33.152t-0.288-46.848 29.728-33.152q20.576-10.272 41.44-6.848t36.576 20.288 15.712 38.56zM638.72 478.848q-8-61.152-64.576-93.728t-112.576-7.424q-36 16-57.44 50.56t-19.712 74.016q2.272 52 44.288 88.576t94.56 32q52-4.576 86.848-48t28.576-96zM775.296 169.152q-11.424-15.424-32-25.44t-33.152-12.576-40.576-7.136q-166.272-26.848-323.424 1.152-24.576 4-37.728 6.848t-31.424 12.576-28.576 24.576q17.152 16 43.424 26.016t42.016 12.576 50.016 6.56q130.272 16.576 256 0.576 36-4.576 51.136-6.848t41.44-12.288 42.848-26.56zM807.84 760.576q-4.576 14.848-8.864 43.712t-8 48-16.288 40-33.152 32.288q-49.152 27.424-108.288 40.864t-115.424 12.576-115.136-10.56q-26.272-4.576-46.56-10.272t-43.712-15.424-41.728-24.864-29.728-35.136q-14.272-54.848-32.576-166.848l3.424-9.152 10.272-5.152q127.424 84.576 289.44 84.576t290.016-84.576q12 3.424 13.728 13.152t-2.848 25.728-4.576 21.152zM911.296 211.424q-14.848 95.424-63.424 374.272-2.848 17.152-15.424 32t-24.864 22.848-31.136 17.728q-144 72-348.576 50.272-141.728-15.424-225.152-79.424-8.576-6.848-14.56-15.136t-9.728-20-5.152-19.424-3.424-22.56-3.136-20q-5.152-28.576-15.136-85.728t-16-92.288-13.44-84.288-12.576-90.272q1.728-14.848 10.016-27.712t18.016-21.44 25.728-17.152 26.272-12.864 27.424-10.56q71.424-26.272 178.848-36.576 216.576-21.152 386.272 28.576 88.576 26.272 122.848 69.728 9.152 11.424 9.44 29.152t-3.136 30.848z" p-id="6629" fill="#1296db"></path>
</svg>