<?xml version="1.0" encoding="UTF-8"?>
<svg width="16px" height="15px" viewBox="0 0 16 15" version="1.1"
    xmlns="http://www.w3.org/2000/svg"
    xmlns:xlink="http://www.w3.org/1999/xlink" width="1em" height="1em">
    <title>发布</title>
    <g id="页面-1" stroke="currentColor" stroke-width="1" fill="none" fill-rule="evenodd">
        <g id="发布" fill="currentColor" fill-rule="nonzero">
            <path d="M1.42185338,0.0931242518 L15.4189729,6.59411684 C15.9197692,6.82671281 16.1369787,7.42079329 15.9041238,7.92103272 C15.8046807,8.13466502 15.632843,8.30631162 15.4189729,8.40564408 L1.42185338,14.9066367 C0.921056992,15.1392326 0.326315081,14.9222647 0.0934601427,14.4220253 C-0.0324076655,14.151625 -0.0307494694,13.839193 0.0979814182,13.570141 L2.79627545,7.93061255 C2.92660772,7.65821358 2.92660772,7.34154734 2.79627545,7.06914837 L0.0979814182,1.42961996 C-0.140170206,0.931874785 0.0707211999,0.335527266 0.569020557,0.0976404991 C0.838372146,-0.0309472221 1.15115204,-0.0326035741 1.42185338,0.0931242518 Z M1.00114779,1.00032167 L3.69833942,6.637546 C3.75442086,6.75475816 3.79844801,6.87606889 3.83042088,6.99971628 L8.5,7 C8.77614237,7 9,7.22385763 9,7.5 C9,7.77614237 8.77614237,8 8.5,8 L3.83045941,7.99989558 C3.79848339,8.12359453 3.75444339,8.24495566 3.69833942,8.36221492 L1.00114779,13.9994393 L14.9951802,7.49988046 L1.00114779,1.00032167 Z" id="合并形状"></path>
        </g>
    </g>
</svg>