<?xml version="1.0" encoding="UTF-8"?>
<svg width="16px" height="16px" viewBox="0 0 16 16" version="1.1"
    xmlns="http://www.w3.org/2000/svg"
    xmlns:xlink="http://www.w3.org/1999/xlink" width="1em" height="1em">
    <title>变更请求</title>
    <g id="页面-1" stroke="currentColor" stroke-width="1" fill="none" fill-rule="evenodd">
        <g id="变更请求" fill="currentColor">
            <path d="M12,14.5 C10.6,14.5 9.5,13.4 9.5,12 C9.5,11.5 9.7,10.9 10,10.5 L10,11.5 C10,11.8 10.2,12 10.5,12 C10.8,12 11,11.8 11,11.5 L11,9.5 C11,9.2 10.8,9 10.5,9 L8.5,9 C8.2,9 8,9.2 8,9.5 C8,9.8 8.2,10 8.5,10 L9.1,10 C8.7,10.6 8.5,11.3 8.5,12 C8.5,13.9 10.1,15.5 12,15.5 C12.3,15.5 12.5,15.3 12.5,15 C12.5,14.7 12.3,14.5 12,14.5 Z" id="路径"></path>
            <path d="M15.5,14 L14.9,14 C15.3,13.4 15.5,12.7 15.5,12 C15.5,10.5 14.6,9.2 13.2,8.7 C12.8,8.6 12.4,8.5 12,8.5 C11.7,8.5 11.5,8.7 11.5,9 C11.5,9.3 11.7,9.5 12,9.5 C12.3,9.5 12.6,9.5 12.8,9.6 C13.8,10 14.5,10.9 14.5,12 C14.5,12.5 14.3,13.1 14,13.5 L14,12.5 C14,12.2 13.8,12 13.5,12 C13.2,12 13,12.2 13,12.5 L13,14.5 C13,14.8 13.2,15 13.5,15 L15.5,15 C15.8,15 16,14.8 16,14.5 C16,14.2 15.8,14 15.5,14 Z" id="路径"></path>
            <path d="M7.5,14 L7,14 L2,14 C1.4,14 1,13.6 1,13 L1,2 C1,1.4 1.4,1 2,1 L11,1 C11.6,1 12,1.4 12,2 L12,6 L12,6.5 C12,6.8 12.2,7 12.5,7 C12.8,7 13,6.8 13,6.5 L13,6 L13,2 C13,0.9 12.1,0 11,0 L2,0 C0.9,0 0,0.9 0,2 L0,13 C0,14.1 0.9,15 2,15 L7,15 L7.5,15 C7.8,15 8,14.8 8,14.5 C8,14.2 7.8,14 7.5,14 Z" id="路径"></path>
            <path d="M10,4.5 C10,4.2 9.8,4 9.5,4 L3.5,4 C3.2,4 3,4.2 3,4.5 C3,4.8 3.2,5 3.5,5 L9.5,5 C9.8,5 10,4.8 10,4.5 Z" id="路径"></path>
            <path d="M3.5,7 C3.2,7 3,7.2 3,7.5 C3,7.8 3.2,8 3.5,8 L6.5,8 C6.8,8 7,7.8 7,7.5 C7,7.2 6.8,7 6.5,7 L3.5,7 Z" id="路径"></path>
        </g>
    </g>
</svg>