<?xml version="1.0" standalone="no"?><!DOCTYPE svg PUBLIC "-//W3C//DTD SVG 1.1//EN" "http://www.w3.org/Graphics/SVG/1.1/DTD/svg11.dtd">
<svg t="1693208864245" class="icon" viewBox="0 0 1024 1024" version="1.1"
    xmlns="http://www.w3.org/2000/svg" p-id="6464"
    xmlns:xlink="http://www.w3.org/1999/xlink" width="1em" height="1em">
    <path d="M511.914667 85.930667c-10.922667 0-22.357333 3.669333-30.677334 11.989333l-157.312 158.72L383.914667 316.586667l85.333333-83.968v151.978666a42.666667 42.666667 0 0 0 85.333333 0V232.618667l85.333334 83.968 59.989333-59.989334-157.312-158.677333a43.264 43.264 0 0 0-30.677333-11.946667z m-298.666667 384a42.666667 42.666667 0 0 0 0 85.333333h597.333333a42.666667 42.666667 0 0 0 0-85.333333h-597.333333z m298.666667 128a42.666667 42.666667 0 0 0-42.666667 42.666666v151.978667l-85.333333-83.968-59.989334 59.989333 157.312 158.72a43.946667 43.946667 0 0 0 61.354667 0l157.312-158.72-59.989333-59.989333-85.333334 83.968v-151.978667a42.666667 42.666667 0 0 0-42.666666-42.666666z" fill="#000000" p-id="6465"></path>
</svg>