<?xml version="1.0" standalone="no"?><!DOCTYPE svg PUBLIC "-//W3C//DTD SVG 1.1//EN" "http://www.w3.org/Graphics/SVG/1.1/DTD/svg11.dtd">
<svg t="1692944696750" class="icon" viewBox="0 0 1024 1024" version="1.1"
    xmlns="http://www.w3.org/2000/svg" p-id="8126"
    xmlns:xlink="http://www.w3.org/1999/xlink" width="1em" height="1em">
    <path d="M508.2 959.6C262.9 959.6 63.3 760 63.3 514.7S262.9 69.9 508.2 69.9 953 269.4 953 514.7 753.5 959.6 508.2 959.6z m0-824.3c-209.2 0-379.4 170.2-379.4 379.4S299 894.1 508.2 894.1s379.4-170.2 379.4-379.4-170.2-379.4-379.4-379.4z" fill="currentColor" p-id="8127"></path>
    <path d="M705.8 547.4c-8.4 0-16.7-3.2-23.1-9.6L543.9 399.1c-12.8-12.8-12.8-33.5 0-46.3 12.8-12.8 33.5-12.8 46.3 0L729 491.6c12.8 12.8 12.8 33.5 0 46.3-6.4 6.3-14.8 9.5-23.2 9.5z" fill="currentColor" p-id="8128"></path>
    <path d="M567.1 686.2c-8.4 0-16.7-3.2-23.1-9.6-12.8-12.8-12.8-33.5 0-46.3l138.8-138.8c12.8-12.8 33.5-12.8 46.3 0 12.8 12.8 12.8 33.5 0 46.3L590.2 676.6c-6.4 6.4-14.8 9.6-23.1 9.6zM489.9 547.4c-8.4 0-16.7-3.2-23.1-9.6L328.1 399.1c-12.8-12.8-12.8-33.5 0-46.3 12.8-12.8 33.5-12.8 46.3 0l138.8 138.8c12.8 12.8 12.8 33.5 0 46.3-6.5 6.3-14.9 9.5-23.3 9.5z" fill="currentColor" p-id="8129"></path>
    <path d="M351.2 686.2c-8.4 0-16.7-3.2-23.1-9.6-12.8-12.8-12.8-33.5 0-46.3l138.8-138.8c12.8-12.8 33.5-12.8 46.3 0 12.8 12.8 12.8 33.5 0 46.3L374.3 676.6c-6.4 6.4-14.8 9.6-23.1 9.6z" fill="currentColor" p-id="8130"></path>
</svg>