<?xml version="1.0" standalone="no"?><!DOCTYPE svg PUBLIC "-//W3C//DTD SVG 1.1//EN" "http://www.w3.org/Graphics/SVG/1.1/DTD/svg11.dtd">
<svg t="1688952939205" class="icon" viewBox="0 0 1024 1024" version="1.1"
    xmlns="http://www.w3.org/2000/svg" p-id="2318"
    xmlns:xlink="http://www.w3.org/1999/xlink" width="1em" height="1em">
    <path d="M393.216 867.1744h582.7072a47.4624 47.4624 0 0 0 47.3088-47.3088v-512a47.4624 47.4624 0 0 0-47.3088-47.3088h-203.264a18.0736 18.0736 0 0 0-18.176 18.176v3.6352c0 10.3936 8.3456 18.2272 18.2272 18.2272h167.3728c18.688 0 33.792 15.0528 33.792 33.792v457.9328c0 18.688-15.104 33.792-33.792 33.792H429.568a33.7408 33.7408 0 0 1-33.792-33.792V334.848c0-18.7392 15.104-33.792 33.792-33.792h96.6656a18.0736 18.0736 0 0 0 18.2272-18.176v-3.6864a18.0736 18.0736 0 0 0-18.2272-18.176H393.216a47.4624 47.4624 0 0 0-47.2576 47.3088v511.488c0 25.9584 21.2992 47.3088 47.2576 47.3088z" fill="#606266" p-id="2319"></path>
    <path d="M630.272 0.6656H47.616a47.4624 47.4624 0 0 0-47.36 47.3088v511.488c0 25.9584 21.2992 47.2576 47.3088 47.2576H250.88a18.0736 18.0736 0 0 0 18.176-18.176v-3.6352a18.0736 18.0736 0 0 0-18.176-18.176h-166.912a33.7408 33.7408 0 0 1-33.792-33.792V75.008c0-18.7392 15.104-33.792 33.792-33.792h509.952c18.7392 0 33.792 15.0528 33.792 33.792v457.9328c0 18.688-15.0528 33.792-33.792 33.792H497.2032a18.0736 18.0736 0 0 0-18.2272 18.176v3.6352c0 10.3936 8.3456 18.176 18.2272 18.176h133.0688a47.4624 47.4624 0 0 0 47.3088-47.2576V47.9744a47.4624 47.4624 0 0 0-47.3088-47.3088z" fill="#606266" p-id="2320"></path>
</svg>