<?xml version="1.0" standalone="no"?><!DOCTYPE svg PUBLIC "-//W3C//DTD SVG 1.1//EN" "http://www.w3.org/Graphics/SVG/1.1/DTD/svg11.dtd">
<svg t="1685508073138" class="icon" viewBox="0 0 1024 1024" version="1.1"
    xmlns="http://www.w3.org/2000/svg" p-id="9301"
    xmlns:xlink="http://www.w3.org/1999/xlink" width="1em" height="1em">
    <path d="M746.666667 298.666667a21.333333 21.333333 0 0 0-21.333334 21.333333v448c0 117.633333-95.7 213.333333-213.333333 213.333333s-213.333333-95.7-213.333333-213.333333V234.666667c0-82.34 66.993333-149.333333 149.333333-149.333334s149.333333 66.993333 149.333333 149.333334v405.333333a85.333333 85.333333 0 0 1-170.666666 0V320a21.333333 21.333333 0 0 0-42.666667 0v320c0 70.58 57.42 128 128 128s128-57.42 128-128V234.666667a192 192 0 1 0-384 0v533.333333a256 256 0 1 0 512 0V320a21.333333 21.333333 0 0 0-21.333333-21.333333z" fill="#5C5C66" p-id="9302"></path>
</svg>