<?xml version="1.0" standalone="no"?><!DOCTYPE svg PUBLIC "-//W3C//DTD SVG 1.1//EN" "http://www.w3.org/Graphics/SVG/1.1/DTD/svg11.dtd"><svg t="1730948757294" class="icon" viewBox="0 0 1024 1024" version="1.1" xmlns="http://www.w3.org/2000/svg" p-id="6785" xmlns:xlink="http://www.w3.org/1999/xlink" width="1em" height="1em"><path d="M947.34823371 72.38632175c20.169679 0 36.53964342-16.3699659 36.53964341-36.53964341s-16.3699659-36.53964342-36.53964341-36.53964343L326.16976931-0.69296656c-161.21423984 0-292.3186571 131.10592403-292.3186571 292.31865709s131.10592403 292.3186571 292.3186571 292.3186571l73.07928684 0 0 440.74861893 73.07928685 0L472.32834447 72.38632175l219.23936878 0 0 952.30815158 73.07928684 0L764.64700009 72.38632175 947.34823371 72.38632175zM399.24905615 510.86505932l-73.07928684 0c-120.87337655 0-219.23936878-98.36599222-219.23936878-219.23936879s98.36599222-219.23936878 219.23936878-219.23936878l73.07928684 0L399.24905615 510.86505932z" fill="currentColor" p-id="6786"></path></svg>