<svg t="1740123870293" class="icon" viewBox="0 0 1024 1024" version="1.1" xmlns="http://www.w3.org/2000/svg" p-id="8229" width="1em" height="1em"><path d="M519.36 459.008a8 8 0 0 0-5.632 2.304l-50.944 50.944a8 8 0 0 0 0 11.328l385.216 385.152a8 8 0 0 0 11.328 0l50.88-50.944a8 8 0 0 0 0-11.328L524.992 461.312a8 8 0 0 0-5.632-2.368z m90.24-133.248l0.384-56.96 37.12 43.264c13.184 15.36 32.384 24.32 52.608 24.448l56.96 0.32-43.264 37.12c-15.36 13.184-24.256 32.384-24.384 52.608l-0.384 56.96-37.12-43.264a69.888 69.888 0 0 0-52.608-24.384l-56.96-0.384 43.264-37.12c15.36-13.12 24.32-32.32 24.448-52.608z m-304.64 89.6l0.32-44.48 28.992 33.792c10.304 12.032 25.28 18.944 41.088 19.008l44.48 0.32-33.856 28.992a54.528 54.528 0 0 0-19.008 41.088l-0.256 44.48-28.992-33.792a54.528 54.528 0 0 0-41.088-19.008l-44.48-0.256 33.792-28.992a54.592 54.592 0 0 0 19.072-41.088zM376.32 628.736l0.192-33.6 21.888 25.536a41.152 41.152 0 0 0 30.976 14.4l33.6 0.192-25.472 21.888a41.152 41.152 0 0 0-14.4 30.976l-0.192 33.6-21.888-25.472a41.152 41.152 0 0 0-31.04-14.4l-33.6-0.192 25.536-21.888a41.152 41.152 0 0 0 14.4-31.04z" p-id="8230"></path><path d="M880 110.976H144a32 32 0 0 0-32 32v736a32 32 0 0 0 32 32h403.008a8 8 0 0 0 8-8v-56a8 8 0 0 0-8-8H184V183.04h656v363.008c0 4.48 3.584 8 8 8h56a8 8 0 0 0 8-8V142.976a32 32 0 0 0-32-32z" p-id="8231"></path></svg>