<?xml version="1.0" standalone="no"?><!DOCTYPE svg PUBLIC "-//W3C//DTD SVG 1.1//EN" "http://www.w3.org/Graphics/SVG/1.1/DTD/svg11.dtd">
<svg t="1708323863212" class="icon" viewBox="0 0 1024 1024" version="1.1"
    xmlns="http://www.w3.org/2000/svg" p-id="5713"
    xmlns:xlink="http://www.w3.org/1999/xlink" width="1em" height="1em">
    <path d="M1007.872 271.872L521.728 65.28c-3.328-1.536-7.168-1.536-10.24-0.512-3.072-0.768-6.144-0.512-9.472 0.768L15.872 272.128c-13.568 5.888-13.568 26.368 0 32.256l486.4 206.592c3.328 1.536 6.656 1.536 9.984 0.768 3.072 0.768 6.4 0.512 9.472-1.024l486.144-206.592c13.568-5.888 13.568-26.368 0-32.256z m-496.128 180.992L124.672 288.256l387.584-164.608 387.328 164.352-387.84 164.864zM466.176 563.456l-431.104-174.08c-10.24-4.096-21.248 3.328-21.248 14.336v328.192c0 5.888 3.328 11.264 8.448 13.824l431.104 212.48c10.24 4.864 22.016-2.56 22.528-13.568V577.792c0-6.4-3.84-12.032-9.728-14.336z m-41.728 323.328L65.024 709.632v-252.928l359.424 145.152v284.928zM994.816 389.12l-431.104 174.08c-5.888 2.56-9.728 8.192-9.728 14.336v366.848c0 11.264 11.776 18.688 22.016 13.824l431.36-212.224c5.376-2.56 8.704-7.936 8.704-13.824V403.456c0-11.008-11.264-18.432-21.248-14.336z m-30.208 320.768l-359.424 176.896V601.856l359.424-144.896v252.928z" p-id="5714" fill="#ffffff"></path>
</svg>