<svg t="1740123806137" class="icon" viewBox="0 0 1024 1024" version="1.1" xmlns="http://www.w3.org/2000/svg" p-id="7200" width="1em" height="1em"><path d="M426.666667 42.666667h384a85.333333 85.333333 0 0 1 85.333333 85.333333v640a85.333333 85.333333 0 0 1-85.333333 85.333333h-85.333334a85.333333 85.333333 0 0 1-85.333333 85.333334H213.333333a85.333333 85.333333 0 0 1-85.333333-85.333334V256a85.333333 85.333333 0 0 1 85.333333-85.333333h85.333334V128a85.333333 85.333333 0 0 1 85.333333-85.333333h42.666667z m384 85.333333H384v42.666667h92.672a85.333333 85.333333 0 0 1 60.330667 25.002666l163.328 163.328A85.333333 85.333333 0 0 1 725.333333 419.328V768h85.333334V128zM213.333333 853.333333h426.666667v-384h-170.666667a42.666667 42.666667 0 0 1-42.666666-42.666666V256H213.333333v597.333333z m298.666667-562.005333V384h92.672L512 291.328z" p-id="7201"></path></svg>