<svg width="1em" height="1em" viewBox="0 0 16 16"
    xmlns="http://www.w3.org/2000/svg" stroke-width="2">
    <path d="m4.586 3.703 3.503 1.551 3.435-1.54-3.48-1.61-3.458 1.599Zm8.99 7.708c.205-.1.512-.1.717 0l1.537.702c.205.1.205.401 0 .501l-7.48 3.31c-.204.101-.512.101-.717 0l-7.48-3.31a.281.281 0 0 1 0-.501l1.538-.702c.205-.1.512-.1.717 0l5.225 2.307c.205.1.513.1.718 0Zm0-4.314c.205-.1.512-.1.717 0l1.537.702c.205.1.205.402.103.502l-7.48 3.31c-.205.1-.512.1-.717 0l-7.48-3.31a.281.281 0 0 1 0-.502l1.537-.702c.205-.1.41-.1.717 0l5.123 2.307c.205.1.513.1.718 0ZM8.453.075l7.377 3.41c.205.101.205.402 0 .502l-7.377 3.31c-.205.101-.512.101-.717 0l-7.48-3.31a.281.281 0 0 1 0-.501L7.633.076c.308-.101.513-.101.82 0Z" fill="currentColor" fill-rule="nonzero"></path>
</svg>