<svg t="1695806336226" class="icon" viewBox="0 0 1024 1024" version="1.1" xmlns="http://www.w3.org/2000/svg" p-id="6573"
    width="1em" height="1em">
    <path
        d="M864 96a64 64 0 0 1 64 64v704a64 64 0 0 1-64 64h-704a64 64 0 0 1-64-64v-704a64 64 0 0 1 64-64h704z m-16 64H176a16 16 0 0 0-15.552 12.352L160 176v672a16 16 0 0 0 12.352 15.552l3.648 0.448h672a16 16 0 0 0 15.552-12.352l0.448-3.648V176a16 16 0 0 0-16-16zM736 640a32 32 0 1 1 0 64h-448a32 32 0 1 1 0-64h448z m0-160a32 32 0 1 1 0 64h-448a32 32 0 0 1 0-64h448zM544 320a32 32 0 0 1 0 64h-256a32 32 0 0 1 0-64h256z"
        fill="currentColor" p-id="6574"></path>
</svg>