<?xml version="1.0" standalone="no"?><!DOCTYPE svg PUBLIC "-//W3C//DTD SVG 1.1//EN" "http://www.w3.org/Graphics/SVG/1.1/DTD/svg11.dtd">
<svg t="1689905217210" class="icon" viewBox="0 0 1024 1024" version="1.1"
    xmlns="http://www.w3.org/2000/svg" p-id="23551"
    xmlns:xlink="http://www.w3.org/1999/xlink" width="1em" height="1em">
    <path d="M297.891 162a16 16 0 0 0-14.876 10.109L94.148 649.055c-2.08 5.251 1.79 10.945 7.438 10.945h63.399c6.562 0 12.46-4.008 14.876-10.109l51.511-130.082c0.788 1.358 1.851 2.191 3.022 2.191h204.118l51.024 127.928A16.001 16.001 0 0 0 504.398 660h63.481c5.656 0 9.526-5.71 7.431-10.964L385.07 172.072A16 16 0 0 0 370.209 162h-72.318z m108.712 280H262.184l71.95-181.695L406.603 442zM776.98 307.036c-42.504 0-75.992 7.084-100.464 22.54-28.98 16.744-56.672 42.216-63.756 78.924l82.432 7.372c3.864-17.388 13.524-30.268 27.692-38.64 12.236-7.728 28.336-10.948 48.944-10.948 47.656 0 71.484 21.252 71.484 65.044v12.88l-72.772 1.932c-48.944 1.288-86.94 11.592-113.988 30.912-29.624 19.964-43.792 48.944-43.792 86.296 0 27.692 10.304 50.232 30.912 68.264 19.964 17.388 47.012 26.404 81.788 26.404 28.98 0 54.096-5.152 75.348-14.812 18.676-9.016 34.776-21.252 47.656-37.996V649h68.264V436.48c0-40.572-10.304-71.484-30.912-92.736-23.184-24.472-59.892-36.708-108.836-36.708z m66.332 189.98v16.744c0 25.76-10.304 47.012-29.624 63.756-19.32 16.1-43.148 24.472-71.484 24.472-16.1 0-28.98-4.508-39.284-12.236-10.304-7.728-14.812-17.388-14.812-28.98 0-39.928 28.98-60.536 87.584-61.824l67.62-1.932zM109 790c0-4.418 3.286-8 7.34-8h792.32c4.054 0 7.34 3.582 7.34 8v64c0 4.418-3.286 8-7.34 8H116.34c-4.054 0-7.34-3.582-7.34-8v-64z" fill="#323338" p-id="23552"></path>
</svg>