<?xml version="1.0" standalone="no"?>
<!DOCTYPE svg PUBLIC "-//W3C//DTD SVG 1.1//EN" "http://www.w3.org/Graphics/SVG/1.1/DTD/svg11.dtd">
<svg t="1730796465821" class="icon" viewBox="0 0 1024 1024" version="1.1"
    xmlns="http://www.w3.org/2000/svg" p-id="9863"
    xmlns:xlink="http://www.w3.org/1999/xlink" width="1em" height="1em">
    <path d="M181.1 547.5c0.94 0.96 1.87 1.93 2.82 2.88 23.82 23.81 47.63 47.64 71.48 71.43 2.96 2.96 5.31 6.18 6 10.42 0.92 5.62-0.37 10.69-4.33 14.75-8.3 8.51-16.66 16.97-25.24 25.19-6.44 6.18-16.23 6.08-23.01 0.22-0.84-0.73-1.62-1.53-2.41-2.31-43.62-43.6-87.22-87.21-130.86-130.78-5.31-5.3-9.19-11.32-10.62-18.76-2.09-10.87 0.37-20.63 7.4-29.19 1.18-1.43 2.52-2.73 3.83-4.04 43.17-43.17 86.35-86.32 129.52-129.48 0.88-0.88 1.74-1.77 2.64-2.61 7.07-6.59 17.15-6.64 24.12 0.05 5.27 5.06 10.36 10.31 15.52 15.47 2.98 2.98 6.02 5.9 8.91 8.95 6.54 6.88 6.59 16.85 0.17 23.84-0.84 0.91-1.73 1.77-2.61 2.64-22.59 22.59-45.19 45.18-67.8 67.75-0.96 0.96-2.13 1.7-3.21 2.55 0.13 0.27 0.27 0.54 0.4 0.81 0.75 0.15 1.5 0.39 2.26 0.44 1.11 0.08 2.23 0.02 3.34 0.02 71.82 0 143.64 0 215.47 0.01 1.98 0 3.97 0 5.93 0.23 8.64 1.01 15.12 7.75 15.28 16.41 0.22 11.88 0.23 23.78 0.02 35.66-0.16 9.22-7.47 16.26-16.69 16.6-1.48 0.06-2.97 0.03-4.46 0.03H181.44c-0.09 0.26-0.21 0.54-0.34 0.82zM840.45 546.67h-4.33c-72.69 0-145.37 0-218.06-0.02-2.22 0-4.5 0.03-6.64-0.45-6.91-1.56-11.89-7.13-12.93-14.17-0.2-1.34-0.31-2.71-0.32-4.07-0.01-10.65 0.01-21.3 0.01-31.95 0-5.32 1.61-9.99 5.6-13.66 2.61-2.41 5.67-3.99 9.25-4.33 2.09-0.2 4.2-0.28 6.3-0.28 72.93-0.01 145.87-0.01 218.8-0.01h4.7c0.11-0.24 0.23-0.47 0.34-0.71-0.97-1.03-1.91-2.08-2.9-3.07-23.81-23.82-47.62-47.64-71.47-71.43-3.56-3.55-5.9-7.56-6.04-12.72-0.13-4.84 1.37-9.06 4.74-12.48 8.18-8.28 16.34-16.58 24.71-24.67 6.82-6.59 16.86-6.49 23.84-0.1 0.55 0.5 1.07 1.03 1.59 1.56 43.87 43.86 87.74 87.73 131.63 131.57 4.94 4.93 8.53 10.59 10 17.46 2.41 11.25-0.01 21.35-7.38 30.22-0.71 0.86-1.5 1.65-2.29 2.44-44.13 44.13-88.27 88.24-132.39 132.38-2.41 2.41-5.03 4.42-8.34 5.34-6.22 1.72-11.93 0.52-16.54-3.94-8.55-8.25-16.99-16.62-25.2-25.22-6.27-6.56-6.01-16.54 0.12-23.28 0.83-0.92 1.73-1.77 2.61-2.65 22.68-22.67 45.36-45.35 68.06-68.01 0.95-0.95 2.12-1.69 3.19-2.53-0.22-0.4-0.44-0.81-0.66-1.22z" p-id="9864"></path>
</svg>