<?xml version="1.0" standalone="no"?><!DOCTYPE svg PUBLIC "-//W3C//DTD SVG 1.1//EN" "http://www.w3.org/Graphics/SVG/1.1/DTD/svg11.dtd">
<svg t="1681373834008" class="icon" viewBox="0 0 1024 1024" version="1.1"
    xmlns="http://www.w3.org/2000/svg" p-id="6070"
    xmlns:xlink="http://www.w3.org/1999/xlink" width="1em" height="1em">
    <path d="M588.6 509.8c2.9 93.9-4.7 210.1 3.6 326.2 4 55.1 18.4 72.6 72.1 86.2 18 4.5 36.6 7 54.7 11.3 10.5 2.5 17.7 9.3 15.5 21.4-2 10.7-10.5 13.3-19.8 13.4-21.9 0.2-44 1.5-65.7-0.5-83.2-7.6-166.3-7.7-249.5 0.1-15.2 1.4-30.8 1.6-46 0.4-14.9-1.1-38 8.6-40.1-15.6-2-23.1 21.2-20 36.4-23.5 9.6-2.2 19.4-3.6 29-5.9 58.8-14.4 77-36 77.1-96.6 0.5-221.5 0.2-442.9 0.2-664.4 0-5.5-0.4-11-0.7-16.4-1.2-22-13.7-35.5-34.6-37.4-112.4-9.9-217.1 5.9-297.7 95.6-15.6 17.4-26 37.8-35.4 58.9-5.6 12.6-13 25.2-29.4 17.6-15.5-7.2-7.9-20.5-4.4-31.7 18-58.7 36.8-117.1 54.2-176 5.6-19 14.4-26.4 35.3-23.7 58.7 7.6 117.7 11.7 177 11.6 151.2-0.4 302.4 0.4 453.6-1 45.9-0.4 91.9-5.3 137.5-10.4 20.5-2.3 30 2.2 33.5 23.6 9.9 60.6 21.4 120.8 32.4 181.2 2 11.2 4.7 22.8-9.6 27.3-14.7 4.6-22.4-4.5-27.5-16.7-1.3-3-2.5-6.1-3.7-9.1-46.1-111.9-99.5-148.1-221-149.3-26.3-0.3-52.6-0.2-78.9 0.6-26.8 0.8-43.2 13.8-45.2 41.9-1.1 15.3-2.8 30.6-2.8 45.9-0.3 97.6-0.1 195.1-0.1 315z" fill="currentColor" p-id="6071"></path>
</svg>