<svg t="1740123726078" class="icon" viewBox="0 0 1024 1024" version="1.1" xmlns="http://www.w3.org/2000/svg" p-id="6029" width="1em" height="1em"><path d="M721.066667 776.533333c-17.066667 0-34.133333 12.8-34.133334 34.133334v25.6c0 21.333333-12.8 38.4-38.4 38.4H187.733333c-21.333333 0-38.4-12.8-38.4-38.4V187.733333c0-21.333333 12.8-38.4 38.4-38.4H554.666667c12.8 0 21.333333 4.266667 29.866666 12.8l89.6 89.6c4.266667 4.266667 8.533333 12.8 8.533334 21.333334 8.533333 17.066667 25.6 25.6 42.666666 21.333333 17.066667-4.266667 25.6-25.6 21.333334-42.666667-4.266667-17.066667-12.8-29.866667-25.6-42.666666l-93.866667-93.866667c-12.8-12.8-25.6-21.333333-42.666667-25.6-4.266667 0-8.533333-4.266667-17.066666-4.266667H170.666667c-12.8 4.266667-25.6 8.533333-34.133334 12.8-25.6 17.066667-42.666667 38.4-51.2 68.266667V853.333333l12.8 38.4c12.8 25.6 38.4 42.666667 68.266667 46.933334H669.866667c42.666667-8.533333 68.266667-34.133333 76.8-76.8 4.266667-17.066667 4.266667-34.133333 4.266666-51.2 0-17.066667-12.8-34.133333-29.866666-34.133334z" p-id="6030"></path><path d="M938.666667 392.533333c-8.533333-38.4-29.866667-68.266667-68.266667-81.066666-42.666667-8.533333-76.8 0-102.4 29.866666l-247.466667 247.466667c-25.6 25.6-46.933333 55.466667-59.733333 85.333333-8.533333 21.333333-12.8 42.666667-21.333333 64h-21.333334c-4.266667 0-8.533333 0-12.8-8.533333-17.066667-42.666667-64-68.266667-110.933333-55.466667-42.666667 8.533333-76.8 51.2-76.8 93.866667 0 21.333333 12.8 34.133333 29.866667 38.4 17.066667 0 34.133333-12.8 34.133333-34.133333 0-17.066667 17.066667-34.133333 34.133333-34.133334s34.133333 12.8 34.133334 34.133334 12.8 34.133333 34.133333 34.133333h89.6c68.266667 0 128-25.6 174.933333-72.533333l256-256c4.266667-4.266667 12.8-12.8 17.066667-21.333334 4.266667-12.8 8.533333-25.6 12.8-34.133333 4.266667-8.533333 4.266667-17.066667 4.266667-29.866667z m-187.733334 149.333334l-136.533333 136.533333c-29.866667 29.866667-59.733333 46.933333-98.133333 55.466667H512c4.266667-8.533333 4.266667-21.333333 8.533333-29.866667 8.533333-25.6 21.333333-46.933333 42.666667-68.266667l145.066667-145.066666 4.266666-4.266667 46.933334 46.933333c-4.266667 4.266667-4.266667 8.533333-8.533334 8.533334z m110.933334-110.933334l-55.466667 55.466667-46.933333-46.933333c4.266667 0 8.533333-4.266667 8.533333-8.533334L814.933333 384c12.8-12.8 34.133333-12.8 46.933334 0 12.8 12.8 12.8 34.133333 0 46.933333zM448 285.866667H251.733333c-17.066667 0-34.133333 12.8-34.133333 34.133333s12.8 34.133333 34.133333 34.133333h196.266667c21.333333 0 34.133333-12.8 34.133333-34.133333 4.266667-21.333333-12.8-34.133333-34.133333-34.133333zM452.266667 418.133333H247.466667c-17.066667 4.266667-29.866667 17.066667-25.6 34.133334 0 17.066667 17.066667 29.866667 34.133333 29.866666h204.8c17.066667-4.266667 29.866667-17.066667 25.6-34.133333-4.266667-17.066667-17.066667-29.866667-34.133333-29.866667z" p-id="6031"></path></svg>