<?xml version="1.0" encoding="UTF-8"?>
<svg width="15px" height="15px" viewBox="0 0 15 15" version="1.1"
    xmlns="http://www.w3.org/2000/svg"
    xmlns:xlink="http://www.w3.org/1999/xlink" width="1em" height="1em">
    <title>任务</title>
    <g id="页面-1" stroke="currentColor" stroke-width="1" fill="none" fill-rule="evenodd">
        <g id="任务" fill="currentColor">
            <path d="M7.1,3.3 L4.6,5.7 L3.6,4.7 C3.4,4.5 3,4.5 2.9,4.7 C2.7,4.9 2.7,5.2 2.9,5.4 L4.3,6.8 C4.5,7 4.8,7 5,6.8 L7.8,4 C8,3.8 8,3.5 7.8,3.3 C7.6,3.1 7.3,3.1 7.1,3.3 Z" id="路径"></path>
            <path d="M12,5 L9,5 C8.7,5 8.5,5.2 8.5,5.5 C8.5,5.8 8.7,6 9,6 L12,6 C12.3,6 12.5,5.8 12.5,5.5 C12.5,5.2 12.3,5 12,5 Z" id="路径"></path>
            <path d="M12,10 L9,10 C8.7,10 8.5,10.2 8.5,10.5 C8.5,10.8 8.7,11 9,11 L12,11 C12.3,11 12.5,10.8 12.5,10.5 C12.5,10.2 12.3,10 12,10 Z" id="路径"></path>
            <path d="M5,8.5 C3.9,8.5 3,9.4 3,10.5 C3,11.6 3.9,12.5 5,12.5 C6.1,12.5 7,11.6 7,10.5 C7,9.4 6.1,8.5 5,8.5 Z M5,11.5 C4.4,11.5 4,11.1 4,10.5 C4,9.9 4.4,9.5 5,9.5 C5.6,9.5 6,9.9 6,10.5 C6,11.1 5.6,11.5 5,11.5 Z" id="形状" fill-rule="nonzero"></path>
            <path d="M12.5,0 L2.5,0 C1.1,0 0,1.1 0,2.5 L0,12.5 C0,13.9 1.1,15 2.5,15 L12.5,15 C13.9,15 15,13.9 15,12.5 L15,2.5 C15,1.1 13.9,0 12.5,0 Z M14,12.5 C14,13.3 13.3,14 12.5,14 L2.5,14 C1.7,14 1,13.3 1,12.5 L1,2.5 C1,1.7 1.7,1 2.5,1 L12.5,1 C13.3,1 14,1.7 14,2.5 L14,12.5 Z" id="形状" fill-rule="nonzero"></path>
        </g>
    </g>
</svg>