<?xml version="1.0" encoding="UTF-8"?>
<svg width="1em" height="1em" viewBox="0 0 16 14" version="1.1"
    xmlns="http://www.w3.org/2000/svg"
    xmlns:xlink="http://www.w3.org/1999/xlink" >
    <title>测试用例</title>
    <g id="页面-1" stroke="currentColor" stroke-width="1" fill="none" fill-rule="evenodd">
        <g id="测试用例" fill="currentColor">
            <path d="M14,0 L2,0 C0.9,0 0,0.9 0,2 L0,10 C0,11.1 0.9,12 2,12 L7.5,12 L7.5,13 L3.5,13 C3.2,13 3,13.2 3,13.5 C3,13.8 3.2,14 3.5,14 L7.5,14 L8.5,14 L12.5,14 C12.8,14 13,13.8 13,13.5 C13,13.2 12.8,13 12.5,13 L8.5,13 L8.5,12 L14,12 C15.1,12 16,11.1 16,10 L16,2 C16,0.9 15.1,0 14,0 Z M15,10 C15,10.6 14.6,11 14,11 L8.5,11 L7.5,11 L2,11 C1.4,11 1,10.6 1,10 L1,2 C1,1.4 1.4,1 2,1 L14,1 C14.6,1 15,1.4 15,2 L15,10 Z" id="形状" fill-rule="nonzero"></path>
            <path d="M13.1,4.6 L11.5,6.2 L8.9,2.7 C8.8,2.6 8.6,2.5 8.4,2.5 C8.3,2.5 8.1,2.6 8,2.8 L6.4,6.9 L4.9,4.7 C4.8,4.6 4.7,4.5 4.5,4.5 C4.3,4.5 4.2,4.5 4.1,4.6 L2.1,6.6 C2,6.8 2,7.2 2.1,7.4 C2.2,7.6 2.6,7.6 2.8,7.4 L4.4,5.8 L6.1,8.3 C6.2,8.4 6.3,8.5 6.5,8.5 C6.5,8.5 6.5,8.5 6.6,8.5 C6.8,8.5 6.9,8.4 7,8.2 L8.6,4 L11.1,7.3 C11.2,7.4 11.3,7.5 11.5,7.5 C11.6,7.5 11.8,7.5 11.9,7.4 L13.9,5.4 C14.1,5.2 14.1,4.9 13.9,4.7 C13.7,4.5 13.3,4.5 13.1,4.6 Z" id="路径"></path>
        </g>
    </g>
</svg>