<?xml version="1.0" encoding="UTF-8"?>
<svg width="15px" height="15px" viewBox="0 0 15 15" version="1.1"
    xmlns="http://www.w3.org/2000/svg"
    xmlns:xlink="http://www.w3.org/1999/xlink" width="1em" height="1em">
    <title>用户故事</title>
    <g id="页面-1" stroke="currentColor" stroke-width="1" fill="none" fill-rule="evenodd">
        <g id="用户故事" fill="currentColor">
            <path d="M12.5,0 L2.5,0 C1.1,0 0,1.1 0,2.5 L0,12.5 C0,13.9 1.1,15 2.5,15 L12.5,15 C13.9,15 15,13.9 15,12.5 L15,2.5 C15,1.1 13.9,0 12.5,0 Z M14,12.5 C14,13.3 13.3,14 12.5,14 L2.5,14 C1.7,14 1,13.3 1,12.5 L1,2.5 C1,1.7 1.7,1 2.5,1 L12.5,1 C13.3,1 14,1.7 14,2.5 L14,12.5 Z" id="形状" fill-rule="nonzero"></path>
            <path d="M10.5,5.5 C10.5,3.8 9.2,2.5 7.5,2.5 C5.8,2.5 4.5,3.8 4.5,5.5 C4.5,6.4 4.9,7.2 5.5,7.8 C3.7,8.4 2.5,10.1 2.5,12 C2.5,12.3 2.7,12.5 3,12.5 C3.3,12.5 3.5,12.3 3.5,12 C3.5,10.1 5.1,8.5 7,8.5 C7.1,8.5 7.1,8.5 7.2,8.5 C7.3,8.5 7.4,8.5 7.5,8.5 C9.2,8.5 10.5,7.2 10.5,5.5 Z M7.5,7.5 C6.4,7.5 5.5,6.6 5.5,5.5 C5.5,4.4 6.4,3.5 7.5,3.5 C8.6,3.5 9.5,4.4 9.5,5.5 C9.5,6.6 8.6,7.5 7.5,7.5 Z" id="形状" fill-rule="nonzero"></path>
            <path d="M11.5,9 L8.5,9 C8.2,9 8,9.2 8,9.5 C8,9.8 8.2,10 8.5,10 L11.5,10 C11.8,10 12,9.8 12,9.5 C12,9.2 11.8,9 11.5,9 Z" id="路径"></path>
            <path d="M11.5,11 L8.5,11 C8.2,11 8,11.2 8,11.5 C8,11.8 8.2,12 8.5,12 L11.5,12 C11.8,12 12,11.8 12,11.5 C12,11.2 11.8,11 11.5,11 Z" id="路径"></path>
        </g>
    </g>
</svg>